<svg xmlns="http://www.w3.org/2000/svg" xmlns:xlink="http://www.w3.org/1999/xlink" aria-hidden="true" role="img" class="iconify iconify--logos" width="31.88" height="32" preserveAspectRatio="xMidYMid meet" viewBox="0 0 256 257"><defs><linearGradient id="IconifyId1813088fe1fbc01fb466" x1="-.828%" x2="57.636%" y1="7.652%" y2="78.411%"><stop offset="0%" stop-color="#41D1FF"></stop><stop offset="100%" stop-color="#BD34FE"></stop></linearGradient><linearGradient id="IconifyId1813088fe1fbc01fb467" x1="43.376%" x2="50.316%" y1="2.242%" y2="89.03%"><stop offset="0%" stop-color="#FFBD4F"></stop><stop offset="100%" stop-color="#FF980E"></stop></linearGradient></defs><path fill="url(#IconifyId1813088fe1fbc01fb466)" d="M255.52 13.194L138.94 252.27a8.148 8.148 0 0 1-10.882 3.936l-72.13-32.524a8.15 8.15 0 0 1-4.69-7.315V68.622a8.15 8.15 0 0 1 4.69-7.315L128.06 28.77a8.148 8.148 0 0 1 10.882 3.937l116.578 239.075Zm-127.52-4.67L39.85 68.622v147.749l88.15 39.849V8.524Z"></path><path fill="url(#IconifyId1813088fe1fbc01fb467)" d="M128 8.524L39.85 68.621l88.15 39.85l88.15-39.85L128 8.524Zm0 98.803L39.85 68.622l88.15-39.849l88.15 39.85L128 107.327Z"></path></svg>
